<?xml version="1.0"?>
<svg xmlns="http://www.w3.org/2000/svg" id="outline" height="512px" viewBox="0 0 512 512" width="512px" nighteye="disabled" class=""><g><path d="m248 16h16v32h-16z" data-original="#000000" class="active-path" data-old_color="#000000" fill="#2ECC3D"/><path d="m112.235 72.236h16v32h-16z" transform="matrix(.707 -.707 .707 .707 -27.175 110.865)" data-original="#000000" class="active-path" data-old_color="#000000" fill="#2ECC3D"/><path d="m48 216h32v16h-32z" data-original="#000000" class="active-path" data-old_color="#000000" fill="#2ECC3D"/><path d="m104.236 351.764h32v16h-32z" transform="matrix(.707 -.707 .707 .707 -219.174 190.388)" data-original="#000000" class="active-path" data-old_color="#000000" fill="#2ECC3D"/><path d="m383.764 343.765h16v32h-16z" transform="matrix(.707 -.707 .707 .707 -139.647 382.398)" data-original="#000000" class="active-path" data-old_color="#000000" fill="#2ECC3D"/><path d="m432 216h32v16h-32z" data-original="#000000" class="active-path" data-old_color="#000000" fill="#2ECC3D"/><path d="m375.765 80.235h32v16h-32z" transform="matrix(.707 -.707 .707 .707 52.344 302.848)" data-original="#000000" class="active-path" data-old_color="#000000" fill="#2ECC3D"/><path d="m239.06885 80.98633a144.02945 144.02945 0 0 0 -39.06885 275.70801v99.30566a40.04552 40.04552 0 0 0 40 40h32a40.04552 40.04552 0 0 0 40-40v-112a8.00008 8.00008 0 0 0 -8-8h-8v-26.6543l11.37793-4.71386 24.50439 24.50586a8.00063 8.00063 0 0 0 11.31348 0l33.94141-33.94141a8.00032 8.00032 0 0 0 0-11.31445l-24.5044-24.50391 4.71289-11.37793h34.6543a8.00008 8.00008 0 0 0 8-8v-48a8.00008 8.00008 0 0 0 -8-8h-34.6543l-4.71289-11.37793 24.5044-24.50391a8.00032 8.00032 0 0 0 0-11.31445l-33.94141-33.94141a8.00182 8.00182 0 0 0 -11.31348 0l-24.50439 24.50489-11.37793-4.71289v-33.72266a8.00008 8.00008 0 0 0 -8-8h-48a8.02194 8.02194 0 0 0 -.93115.05469zm-23.06885 270.29004a8.00121 8.00121 0 0 0 -5.17578-7.48535 128.03693 128.03693 0 0 1 21.17578-245.54883v197.75781a56.06322 56.06322 0 0 0 56 56h8v32h-80zm80 80.72363v16h-80v-16h16v-16h-16v-16h80v16h-40v16zm-24 48h-32a24.03813 24.03813 0 0 1 -22.62384-16h77.24768a24.03813 24.03813 0 0 1 -22.62384 16zm-24-291.7207a31.99951 31.99951 0 1 1 0 55.44238zm0 72.999a48.001 48.001 0 1 0 0-90.55371v-73.793h32v31.06841a7.999 7.999 0 0 0 4.93848 7.39062l21.25488 8.80372a7.99915 7.99915 0 0 0 8.71826-1.7334l22.62744-22.62794 22.62794 22.62794-22.62744 22.62695a8.00057 8.00057 0 0 0 -1.73437 8.71875l8.80371 21.25488a8.00015 8.00015 0 0 0 7.3911 4.93848h32v32h-32a8.00015 8.00015 0 0 0 -7.39111 4.93848l-8.80371 21.25488a8.00057 8.00057 0 0 0 1.73437 8.71875l22.62744 22.627-22.62793 22.62789-22.62744-22.6289a7.99843 7.99843 0 0 0 -8.71826-1.7334l-21.25488 8.80469a8 8 0 0 0 -4.93848 7.39061v31.19629a40.07061 40.07061 0 0 1 -32-39.19629z" data-original="#000000" class="active-path" data-old_color="#000000" fill="#2ECC3D"/></g> </svg>
